<?xml version="1.0" encoding="utf-8"?>
<!-- Designed by Vexels.com - 2020 All Rights Reserved - https://vexels.com/terms-and-conditions/  -->
<svg version="1.1" id="Capa_1" xmlns="http://www.w3.org/2000/svg" xmlns:xlink="http://www.w3.org/1999/xlink" x="0px" y="0px"
	 viewBox="0 0 1200 1200" enable-background="new 0 0 1200 1200" xml:space="preserve">
<g>
	<linearGradient id="SVGID_1_" gradientUnits="userSpaceOnUse" x1="248.798" y1="1084.4117" x2="923.3088" y2="153.8033">
		<stop  offset="0.0722" style="stop-color:#0164E1"/>
		<stop  offset="1" style="stop-color:#18AAFD"/>
	</linearGradient>
	<path fill="url(#SVGID_1_)" d="M599.98,50C296.304,50,50.142,296.204,50.142,599.881c0,272.027,197.579,497.79,457.027,541.925
		V760.029l-134.865,0.582l0.891-157.073l133.973-3.06c3.8-85.283-12.821-170.995,27.451-246.044
		c67.048-103.225,199.262-92.867,307.321-87.774l-0.71,154.223l-92.489-0.278c-36.081,0.217-60.763,16.724-61.128,52.802
		l0.949,130.87h133.433l-0.038,152.688l-133.46,0.633v384.982c21.157-3.433,41.931-7.999,62.199-13.776
		c197.583-56.174,349.849-220.092,389.204-424.22c6.541-33.909,9.956-68.921,9.956-104.698C1149.858,296.204,903.656,50,599.98,50z"
		/>
	<path fill="#FFFFFF" d="M821.958,756.965l0.038-152.688H688.563l-0.949-130.87c0.366-36.078,25.047-52.585,61.128-52.802
		l92.489,0.278l0.71-154.223c-108.059-5.093-240.273-15.452-307.321,87.774c-40.273,75.049-23.652,160.76-27.451,246.044
		l-133.973,3.06l-0.891,157.073l134.865-0.582v381.778v0.202c0,0,37.883,7.755,87.024,7.968c54.177,0.502,94.305-7.253,94.305-7.253
		v-0.143V757.598L821.958,756.965z"/>
</g>
</svg>
